HIERARCHY
ROOT root
{
	OFFSET	0	13.1	24.9
	CHANNELS 6  Xposition Yposition Zposition Xrotation Yrotation Zrotation
	JOINT spine_1
	{
		OFFSET	0	9.99999	0
		CHANNELS 3  Xrotation Yrotation Zrotation
		JOINT spine_2
		{
			OFFSET	0	112	-10
			CHANNELS 3  Xrotation Yrotation Zrotation
			JOINT spine_3
			{
				OFFSET	0	206.5	19.3
				CHANNELS 3  Xrotation Yrotation Zrotation
				JOINT spine_4
				{
					OFFSET	0	110.4	14.6
					CHANNELS 3  Xrotation Yrotation Zrotation
					JOINT neck_1
					{
						OFFSET	0	71.8	-50.3
						CHANNELS 3  Xrotation Yrotation Zrotation
						JOINT neck_2
						{
							OFFSET	0	86.2	-25.8
							CHANNELS 3  Xrotation Yrotation Zrotation
							JOINT head_ee
							{
								OFFSET	0	179.8	-8.7
								CHANNELS 3  Xrotation Yrotation Zrotation
								End Site
								{
									OFFSET	1	0	0
								}
							}
						}
					}
					JOINT left_clavicle
					{
						OFFSET	-43.2	22.4	-70.8
						CHANNELS 3  Xrotation Yrotation Zrotation
						JOINT left_shoulder
						{
							OFFSET	-93.9	-5.79999	48.7
							CHANNELS 3  Xrotation Yrotation Zrotation
							JOINT left_elbow
							{
								OFFSET	-291.4	-30.8	15.2
								CHANNELS 3  Xrotation Yrotation Zrotation
								JOINT left_lowarm_twist
								{
									OFFSET	-110.7	-3.89999	13.6
									CHANNELS 3  Xrotation Yrotation Zrotation
									JOINT left_hand
									{
										OFFSET	-110.7	-3.89999	13.6
										CHANNELS 3  Xrotation Yrotation Zrotation
										JOINT left_ee
										{
											OFFSET	-80.8	-5.10001	12.1
											CHANNELS 3  Xrotation Yrotation Zrotation
											End Site
											{
												OFFSET	1	0	0
											}
										}
									}
								}
							}
						}
					}
					JOINT right_clavicle
					{
						OFFSET	43.2	22.4	-70.8
						CHANNELS 3  Xrotation Yrotation Zrotation
						JOINT right_shoulder
						{
							OFFSET	93.9	-5.79999	48.7
							CHANNELS 3  Xrotation Yrotation Zrotation
							JOINT right_elbow
							{
								OFFSET	291.4	-30.8	15.2
								CHANNELS 3  Xrotation Yrotation Zrotation
								JOINT right_lowarm_twist
								{
									OFFSET	110.7	-3.89999	13.6
									CHANNELS 3  Xrotation Yrotation Zrotation
									JOINT right_hand
									{
										OFFSET	110.7	-3.89999	13.6
										CHANNELS 3  Xrotation Yrotation Zrotation
										JOINT right_ee
										{
											OFFSET	80.8	-5.10001	12.1
											CHANNELS 3  Xrotation Yrotation Zrotation
											End Site
											{
												OFFSET	1	0	0
											}
										}
									}
								}
							}
						}
					}
				}
			}
		}
	}
	JOINT left_hip
	{
		OFFSET	-82.8	-127.5	0.300001
		CHANNELS 3  Xrotation Yrotation Zrotation
		JOINT left_knee
		{
			OFFSET	-28.2	-396.7	2.2
			CHANNELS 3  Xrotation Yrotation Zrotation
			JOINT left_ankle
			{
				OFFSET	-11.7	-411.3	35.4
				CHANNELS 3  Xrotation Yrotation Zrotation
				JOINT left_toes
				{
					OFFSET	0	-60	-88.6
					CHANNELS 3  Xrotation Yrotation Zrotation
					JOINT left_foot_ee
					{
						OFFSET	-22.5	-16.5	-42.2
						CHANNELS 3  Xrotation Yrotation Zrotation
						End Site
						{
							OFFSET	1	0	0
						}
					}
				}
			}
		}
	}
	JOINT right_hip
	{
		OFFSET	82.8	-127.5	0.300001
		CHANNELS 3  Xrotation Yrotation Zrotation
		JOINT right_knee
		{
			OFFSET	28.2	-396.7	2.2
			CHANNELS 3  Xrotation Yrotation Zrotation
			JOINT right_ankle
			{
				OFFSET	11.7	-411.3	35.4
				CHANNELS 3  Xrotation Yrotation Zrotation
				JOINT right_toes
				{
					OFFSET	0	-60	-88.6
					CHANNELS 3  Xrotation Yrotation Zrotation
					JOINT right_foot_ee
					{
						OFFSET	22.5	-16.5	-42.2
						CHANNELS 3  Xrotation Yrotation Zrotation
						End Site
						{
							OFFSET	1	0	0
						}
					}
				}
			}
		}
	}
}
MOTION
Frames: 6
Frame Time: 0.02
3177.02 653.055 -1669.29 -66.8576826478 86.3739233764 64.9523713826 0.031289 0.395105 0.941373 0.0317199 0.334405 0.964604 0.0377068 0.124896 1.01325 0.0363857 0.283345 0.980816 -9.3514 12.0399 6.83714 -9.31202 17.9487 9.55746 -0.0 0.0 -0.0 0.579824 23.4092 3.50278 -31.245 -19.2872 68.5332 0.174231 -4.93304 0.00750507 -5.1739 -0.210777 0.626665 2.997 30.3513 29.0463 -0.0 0.0 -0.0 12.299 21.1045 -24.5387 26.7123 -11.4151 -69.0252 1.8885 43.0872 -0.745616 -63.0666 5.66641 -5.18637 -4.08685 -14.4115 19.9785 0.0 0.0 0.0 33.7504 5.62999 -5.17836 -2.8358 0.106329 0.42217 7.95045 17.5167 -1.15366 -12.196 0.0 0.0 -0.0 0.0 -0.0 -22.2946 18.5124 2.44908 -4.25933 -0.151786 -0.635905 39.3331 6.26717 4.89396 9.05362 -0.0 -0.0 0.0 0.0 0.0 
3115.35568267 654.983 -1643.7410747 -64.6121723267 86.2192043787 63.2550609703 0.382271 0.350821 0.659655 0.38246 0.308136 0.68064 0.386286 0.163135 0.729111 0.38565 0.276235 0.694199 -10.6418 11.7264 5.20753 -10.7089 18.6936 8.1058 -0.0 0.0 -0.0 1.74612 21.804 5.00785 -30.7246 -17.8909 69.0788 0.168295 -4.76576 0.00700326 -5.30699 -0.216943 0.642526 4.91934 31.692 42.3383 -0.0 0.0 -0.0 11.4501 15.3431 -22.9332 22.1106 -4.45699 -69.195 1.87513 42.8843 -0.736504 -65.001 5.91044 -5.22945 -3.81654 -8.89701 21.4423 0.0 0.0 0.0 34.8069 5.56355 -4.80142 -14.7395 0.321199 2.23292 5.06116 16.6906 -0.738941 -11.926 0.0 0.0 -0.0 0.0 -0.0 -25.7771 18.5359 4.25784 -3.05417 -0.113647 -0.454885 31.5676 7.22795 4.16249 12.2443 -0.0 -0.0 0.0 0.0 0.0 
3089.0445117 657.651 -1634.70841924 -67.3455375298 86.2112488065 66.2038121952 0.511522 0.296354 0.552484 0.511654 0.260598 0.570221 0.514357 0.140431 0.611017 0.513913 0.235166 0.581172 -11.3012 11.0503 4.92633 -11.3823 17.7015 7.75394 -0.0 0.0 -0.0 2.27846 21.5731 5.75437 -30.5965 -17.5004 68.8588 0.17592 -4.98061 0.00765097 -6.78498 -0.287889 0.817692 5.11543 31.7096 43.8685 -0.0 0.0 -0.0 11.2282 13.7651 -22.4851 19.9038 -2.6754 -69.2961 1.79444 41.6305 -0.682239 -65.6708 5.99523 -5.24244 -3.78574 -7.51879 22.0228 0.0 0.0 0.0 33.0931 5.64208 -4.34124 -15.3034 0.322004 2.31944 10.7239 15.432 -1.53387 -13.3278 0.0 0.0 -0.0 0.0 -0.0 -24.9426 18.342 4.65164 -7.65775 -0.238721 -1.15012 27.3411 6.98815 3.69749 15.6267 -0.0 -0.0 0.0 0.0 0.0 
3066.43167085 662.404 -1626.98010376 -75.2929466118 86.4586316302 75.2660322618 0.538183 0.148098 0.526062 0.538329 0.114323 0.53442 0.539469 0.00459501 0.546491 0.539064 0.0908442 0.538908 -12.594 11.2872 5.03838 -12.7272 18.2757 8.13422 -0.0 0.0 -0.0 3.12495 20.6689 6.94689 -30.0865 -17.4229 68.3047 0.180723 -5.1159 0.00807364 -7.89531 -0.344153 0.948066 5.08175 31.6666 43.6037 -0.0 0.0 -0.0 10.6918 12.3755 -21.3191 16.4991 0.381269 -70.3922 1.80526 41.8014 -0.689434 -66.4504 6.0941 -5.2563 -3.72728 -6.5454 22.165 0.0 0.0 0.0 31.9914 5.24791 -4.04499 -16.5677 0.320714 2.51341 14.9247 14.1079 -2.0965 -14.5375 0.0 0.0 -0.0 0.0 -0.0 -24.4068 18.4032 5.20719 -10.1707 -0.283308 -1.53312 23.0914 8.24317 3.2168 17.8785 -0.0 -0.0 0.0 0.0 0.0 
3040.5066903 666.456 -1619.86253452 -76.733386973 87.0046935342 76.7158807519 0.575618 -0.0209863 0.456876 0.575733 -0.0500157 0.454615 0.575361 -0.140086 0.435376 0.575103 -0.0695692 0.452035 -12.8745 11.2728 5.00805 -13.0194 18.3088 8.14737 -0.0 0.0 -0.0 3.94292 20.5784 8.14543 -29.6281 -17.9785 67.2897 0.19744 -5.58625 0.00963274 -9.37461 -0.423028 1.12005 5.04492 31.6357 43.315 -0.0 0.0 -0.0 10.6268 11.0879 -21.1987 13.912 0.0715979 -70.2796 1.78346 41.456 -0.674957 -66.8742 6.14792 -5.26327 -3.78225 -5.85767 22.9462 0.0 0.0 0.0 30.9364 5.54921 -3.00251 -17.5774 0.31661 2.66826 15.4108 14.0351 -2.16038 -15.3337 0.0 0.0 -0.0 0.0 -0.0 -23.7677 18.2992 5.29128 -12.9392 -0.312932 -1.95683 20.8104 8.49713 2.93774 18.7458 -0.0 -0.0 0.0 0.0 0.0 
2986.28959964 680.655 -1609.1511206 -57.7712331158 87.7019864492 57.7504338656 1.02485 -0.164823 0.0529375 1.02484 -0.167858 0.042342 1.02471 -0.172871 0.00920943 1.02475 -0.169247 0.0363956 -15.992 11.026 5.71349 -16.2112 17.8597 9.24837 -0.0 0.0 -0.0 4.95931 20.0264 9.66198 -27.823 -18.3463 65.7471 0.337944 -9.50381 0.0280923 -7.24177 -0.310729 0.871458 5.21116 31.8352 44.628 -0.0 0.0 -0.0 9.8943 8.51441 -19.6164 7.8326 0.191932 -70.8138 1.5606 37.704 -0.532881 -67.3984 6.21455 -5.27133 -4.04496 -4.78275 25.4636 0.0 0.0 0.0 23.8784 5.55226 -2.20122 -12.7452 0.311524 1.92711 20.2231 12.3669 -2.76996 -19.3906 0.0 0.0 -0.0 0.0 -0.0 -20.9752 18.4413 6.23397 -19.3328 -0.30298 -2.93725 16.6042 8.09038 2.38778 19.7736 -0.0 -0.0 0.0 0.0 0.0 
